# xmcd
# Track frame offsets:
# 150
# 13725
# 25240
# 37367
# 48827
# 62737
# 76630
# 89390
# 101542
# 112305
# 127860
# 139760
# 152902
# 165710
# 176252
# 189000
#
# Disc length: 2716 seconds
# Revision: 0
# Processed by: cddbd v1.4PL0 Copyright (c) Steve Scherf et al.
# Submitted via: VisiTrax 2.9.5.181 - For more info visit www.synapsa.com
#
DISCID=c80a9a10
DTITLE=George Jones And Ladies - Here We Are
DYEAR=1986
DGENRE=Country
TTITLE0=George Jones and Tammy Wynette - Golden Ring
TTITLE1=George Jones and Brenda Lee - Hallelujah, I Love Her So
TTITLE2=Jones, George and Janie Frickie - All I Want To Do In Life
TTITLE3=Jones, George and Loretta Lynn - We Sure Make Good Love
TTITLE4=George Jones and Barbra Mandrell - Daisy Chain
TTITLE5=George Jones and Lacy J. Dalton - That's Good - That's Bad
TTITLE6=George Jones and Emmylou Harris - Here We Are
TTITLE7=George Jones and Tammy Wynette - Two Story House
TTITLE8=George Jones and Tammy Wynette - A PAir Of Old Sneakers
TTITLE9=Jones, George and Lyn Anderson - If You Can Touch Her AT All
TTITLE10=George Jones and Linda Ronstadt - I've Turned You To Stone
TTITLE11=George Jones and Lacy J. Dalton - Size Seven Round (Made Of Gold)
TTITLE12=George Jones and Deborah Allen - Our Love Was Ahead Of It's Time
TTITLE13=George Jones and Terri Gibbs - Slow Burning Fire
TTITLE14=George Jones and Leona Williams - Best Friends
TTITLE15=George Jones and Emmylou Harris - All Fall Down
EXTD=
EXTT0=
EXTT1=
EXTT2=
EXTT3=
EXTT4=
EXTT5=
EXTT6=
EXTT7=
EXTT8=
EXTT9=
EXTT10=
EXTT11=
EXTT12=
EXTT13=
EXTT14=
EXTT15=
PLAYORDER=
